<?xml version="1.0" encoding="UTF-8"?> <svg xmlns="http://www.w3.org/2000/svg" xmlns:xlink="http://www.w3.org/1999/xlink" viewBox="0 0 140 103.79"> <defs> <style>.cls-1{fill:url(#Безымянный_градиент_32);}.cls-2{fill:url(#Безымянный_градиент_32-2);}.cls-3{fill:url(#Безымянный_градиент_32-3);}.cls-4{fill:url(#Безымянный_градиент_32-4);}</style> <linearGradient id="Безымянный_градиент_32" y1="51.9" x2="140" y2="51.9" gradientUnits="userSpaceOnUse"> <stop offset="0" stop-color="#b3852d"></stop> <stop offset="0.51" stop-color="#ebc780"></stop> <stop offset="0.6" stop-color="#e7c27a"></stop> <stop offset="0.72" stop-color="#dcb66a"></stop> <stop offset="0.86" stop-color="#caa050"></stop> <stop offset="1" stop-color="#b3852d"></stop> </linearGradient> <linearGradient id="Безымянный_градиент_32-2" x1="0" y1="72.41" x2="16.9" y2="72.41" xlink:href="#Безымянный_градиент_32"></linearGradient> <linearGradient id="Безымянный_градиент_32-3" x1="0" y1="86.9" x2="36.21" y2="86.9" xlink:href="#Безымянный_градиент_32"></linearGradient> <linearGradient id="Безымянный_градиент_32-4" x1="0" y1="101.38" x2="62.76" y2="101.38" xlink:href="#Безымянный_градиент_32"></linearGradient> </defs> <title>4-2</title> <g id="Слой_2" data-name="Слой 2"> <g id="Слой_1-2" data-name="Слой 1"> <path class="cls-1" d="M126.13,61.94l-20.92-1.49-13.82-23L84.48,25.88V22.69a6.28,6.28,0,0,0-8.54-5.86L56.07,24.5l1.5-5A9.37,9.37,0,0,0,52.94,8.67L37.35.29a2.41,2.41,0,0,0-3.21.88L11.26,37.8l-.48-.28a2.41,2.41,0,0,0-3.29.89l0,.07L.28,52a2.42,2.42,0,0,0,1,3.24l87.1,48.28a2.42,2.42,0,0,0,1.17.3h36A14.5,14.5,0,0,0,140,89.31V76.83A15,15,0,0,0,126.13,61.94Zm-26-.52-2.76.92L75.82,34.26l5.55-4.17ZM37.09,5.63l13.57,7.28a4.55,4.55,0,0,1,2.26,5.21l-2,6.72L37.08,16.53l-4.8-2.88Zm-14.29,23L24,26.73,32,32.64a13.83,13.83,0,0,1,5.38,13l-.3,7L15.49,40.22ZM125.52,99H90.14L5.65,52.14,10.53,43l80,46a2.41,2.41,0,0,0,1.21.32h43.45A9.66,9.66,0,0,1,125.52,99Zm9.65-14.48H92.37L75.81,75l5.57-5.67a2.41,2.41,0,0,0-3.45-3.38l-6.44,6.57-9.17-5.29,9.2-7.36a2.41,2.41,0,0,0-3-3.77L57.82,64.59,50,60.07l11.92-9.94a2.42,2.42,0,1,0-3.09-3.71L45.5,57.5l-3.73-2.15.39-9.27a18.54,18.54,0,0,0-7.31-17.33l-8.22-6.11,3.11-4.88L51.11,30.58a2.36,2.36,0,0,0,.93.3l.17,0,.14,0a2.4,2.4,0,0,0,.87-.16l24.45-9.43a1.45,1.45,0,0,1,2,1.36v2.66L71,31.87a2.41,2.41,0,0,0-.48,3.38l0,0L94.63,66.65a2.4,2.4,0,0,0,2.67.82l6.78-2.26,21.69,1.55a10.14,10.14,0,0,1,9.39,10.07Z"></path> <path class="cls-2" d="M14.48,70H2.41a2.41,2.41,0,1,0,0,4.83H14.48a2.41,2.41,0,1,0,0-4.83Z"></path> <path class="cls-3" d="M0,86.9a2.41,2.41,0,0,0,2.41,2.41H33.79a2.41,2.41,0,0,0,0-4.83H2.41A2.41,2.41,0,0,0,0,86.9Z"></path> <path class="cls-4" d="M60.35,99H2.41a2.41,2.41,0,1,0,0,4.83H60.35a2.41,2.41,0,0,0,0-4.83Z"></path> </g> </g> </svg> 