<?xml version="1.0" encoding="UTF-8"?> <svg xmlns="http://www.w3.org/2000/svg" xmlns:xlink="http://www.w3.org/1999/xlink" viewBox="0 0 129.65 113.4"> <defs> <style>.cls-1{fill:url(#Безымянный_градиент_32);}.cls-2{fill:url(#Безымянный_градиент_32-2);}.cls-3{fill:url(#Безымянный_градиент_32-3);}.cls-4{fill:url(#Безымянный_градиент_32-4);}.cls-5{fill:url(#Безымянный_градиент_32-5);}.cls-6{fill:url(#Безымянный_градиент_32-6);}.cls-7{fill:url(#Безымянный_градиент_32-7);}.cls-8{fill:url(#Безымянный_градиент_32-8);}.cls-9{fill:url(#Безымянный_градиент_32-9);}</style> <linearGradient id="Безымянный_градиент_32" y1="41.83" x2="101.23" y2="41.83" gradientUnits="userSpaceOnUse"> <stop offset="0" stop-color="#b3852d"></stop> <stop offset="0.51" stop-color="#ebc780"></stop> <stop offset="0.6" stop-color="#e7c27a"></stop> <stop offset="0.72" stop-color="#dcb66a"></stop> <stop offset="0.86" stop-color="#caa050"></stop> <stop offset="1" stop-color="#b3852d"></stop> </linearGradient> <linearGradient id="Безымянный_градиент_32-2" x1="28.44" y1="71.59" x2="129.65" y2="71.59" xlink:href="#Безымянный_градиент_32"></linearGradient> <linearGradient id="Безымянный_градиент_32-3" x1="40.58" y1="54.03" x2="89.11" y2="54.03" xlink:href="#Безымянный_градиент_32"></linearGradient> <linearGradient id="Безымянный_градиент_32-4" x1="39.37" y1="106.13" x2="46.29" y2="106.13" xlink:href="#Безымянный_градиент_32"></linearGradient> <linearGradient id="Безымянный_градиент_32-5" x1="72.98" y1="3.78" x2="79.2" y2="3.78" xlink:href="#Безымянный_градиент_32"></linearGradient> <linearGradient id="Безымянный_градиент_32-6" x1="29.37" y1="100.47" x2="36.7" y2="100.47" gradientTransform="translate(95.09 14.83) rotate(54.13)" xlink:href="#Безымянный_градиент_32"></linearGradient> <linearGradient id="Безымянный_градиент_32-7" x1="50.46" y1="109.62" x2="56.67" y2="109.62" xlink:href="#Безымянный_градиент_32"></linearGradient> <linearGradient id="Безымянный_градиент_32-8" x1="83.38" y1="7.27" x2="90.29" y2="7.27" xlink:href="#Безымянный_градиент_32"></linearGradient> <linearGradient id="Безымянный_градиент_32-9" x1="92.99" y1="12.93" x2="100.31" y2="12.93" gradientTransform="matrix(0.59, 0.81, -0.81, 0.59, 50.37, -72.89)" xlink:href="#Безымянный_градиент_32"></linearGradient> </defs> <title>4-3</title> <g id="Слой_2" data-name="Слой 2"> <g id="Слой_1-2" data-name="Слой 1"> <path class="cls-1" d="M16.14,83.66c-1.09,0-1.88-.57-2.62-1.91Q8.31,72.34,3.07,62.94L0,57.41V55.94A3.21,3.21,0,0,1,3.22,54h.29c.57,0,1.15,0,1.71,0H7.9V54c.18-1.1.35-2.19.52-3.26.37-2.39.71-4.65,1.21-6.92A54.3,54.3,0,0,1,22.16,19.43,56.13,56.13,0,0,1,50.75,1.76,54.17,54.17,0,0,1,64.28,0c1.92,0,3.07.93,3.17,2.48a2.41,2.41,0,0,1-.62,1.79,3,3,0,0,1-2.2.93A52.79,52.79,0,0,0,52,6.88,51.28,51.28,0,0,0,21.11,29.7a49.65,49.65,0,0,0-7.68,25.67,11.94,11.94,0,0,1-.08,1.25,2.75,2.75,0,0,1-3,2.73l-1.06,0H7.11l9,16.28,9-16.28H22.06c-2.11-.05-3.12-1.11-3.09-3.24A45.21,45.21,0,0,1,26.34,31.8,44.52,44.52,0,0,1,48,14.07a47.46,47.46,0,0,1,17.08-3.32A46.23,46.23,0,0,1,86.44,16.2a44.7,44.7,0,0,1,13.89,11.39c1.21,1.47,1.21,3,0,4a2.52,2.52,0,0,1-1.64.65,3.2,3.2,0,0,1-2.41-1.35,40.84,40.84,0,0,0-31.2-14.83c-.87,0-1.76,0-2.64.08a40.7,40.7,0,0,0-37.5,33c-.19.95-.31,1.92-.43,2.87l-.08.64a5.23,5.23,0,0,0,0,.8c0,.15,0,.32,0,.5V54h4.64A3.2,3.2,0,0,1,32,55.36a3.16,3.16,0,0,1-.28,3.14q-3.08,5.57-6.18,11.14-3.36,6.05-6.72,12.11a3,3,0,0,1-2.63,1.92Z"></path> <path class="cls-2" d="M65.28,113.4a3.13,3.13,0,0,1-2.61-1.13A2.46,2.46,0,0,1,62.4,110a2.5,2.5,0,0,1,2.38-1.78c.86-.07,1.72-.13,2.59-.19,1.81-.12,3.67-.24,5.49-.51a50,50,0,0,0,21.43-8.66,51.12,51.12,0,0,0,17.56-21.26,49,49,0,0,0,4.39-18.76c.12-4.35.53-4.75,4.85-4.78l.77,0,.69,0-9-16.2L104.48,54h3.19a2.77,2.77,0,0,1,3,3.17,45.14,45.14,0,0,1-7,23.79A44.71,44.71,0,0,1,81.17,99.52a47.33,47.33,0,0,1-16.58,3.12,46.21,46.21,0,0,1-21.4-5.46A44.62,44.62,0,0,1,29.32,85.77c-1.19-1.45-1.16-3,.07-4A2.52,2.52,0,0,1,31,81.13a3.15,3.15,0,0,1,2.35,1.29A40.86,40.86,0,0,0,64.62,97.32c.88,0,1.77,0,2.66-.09a40.68,40.68,0,0,0,37.46-33c.2-1,.33-2.07.46-3.16.06-.52.13-1.05.2-1.6l0-.11h-4.85A3.17,3.17,0,0,1,97.71,58,3.05,3.05,0,0,1,98,55q6.5-11.74,13-23.45a3,3,0,0,1,2.53-1.74,3.06,3.06,0,0,1,2.57,1.79q6.51,11.66,13,23.34a3.14,3.14,0,0,1,.28,3.12,3.22,3.22,0,0,1-2.92,1.31h-4.9v.09a56,56,0,0,1-3.8,17.75A57,57,0,0,1,94,105.28a55.39,55.39,0,0,1-28.68,8.12Z"></path> <path class="cls-3" d="M64.76,83.73q-3.9,0-7.79,0A23.29,23.29,0,0,1,41.86,78a3.36,3.36,0,0,1-1.28-2.79c0-3.11.06-5.72,0-8.37a5.83,5.83,0,0,1,2.86-5.32q4.18-2.76,8.33-5.55L54.61,54l.73-.51.53-.37-.09-.08a14,14,0,0,1-4.4-11.5c0-.69,0-1.39.06-2.09a25.65,25.65,0,0,1,.38-4.82A13.34,13.34,0,0,1,65,24.32c.37,0,.74,0,1.12,0A13.37,13.37,0,0,1,78.18,36.77a71.32,71.32,0,0,1,0,7.84c-.17,3-1.51,5.72-4.2,8.45l-.08.08.4.32c.2.17.39.32.6.45l2.89,1.94c2.7,1.82,5.5,3.7,8.28,5.5a6.06,6.06,0,0,1,3.06,5.72c-.09,2.5-.05,5,0,7.51v.61A3.36,3.36,0,0,1,87.8,78a23.34,23.34,0,0,1-15.12,5.72Q68.72,83.73,64.76,83.73ZM65,56.28l-3.21,0h-.1a2.53,2.53,0,0,0-1.33.24c-4.94,3.24-9.45,6.25-13.8,9.21a2,2,0,0,0-.74,1.39c-.06,1.93-.07,4,0,6.47a1.74,1.74,0,0,0,.59,1.23A16.57,16.57,0,0,0,56,78.36c1.12,0,2.25,0,3.37,0H73.2A16.75,16.75,0,0,0,83,75a2.16,2.16,0,0,0,.79-1.5c.08-2.13.08-4.26,0-6.34A2.11,2.11,0,0,0,83,65.69c-4.23-2.87-8.71-5.86-13.7-9.14a2.66,2.66,0,0,0-1.39-.26Zm-8.5-15.77c0,.41,0,.83.07,1.24,0,.94.1,1.91.24,2.86a8,8,0,0,0,8,6.71,7.9,7.9,0,0,0,8-6.77A37,37,0,0,0,73,37.33a8.11,8.11,0,0,0-6.62-7.62,9.58,9.58,0,0,0-1.45-.11,7.69,7.69,0,0,0-7.39,4.73,17.48,17.48,0,0,0-.9,4.14c-.08.63-.17,1.27-.29,1.89l0,.09Z"></path> <polygon class="cls-4" points="39.37 107.44 41.5 102.67 46.29 104.81 44.15 109.59 39.37 107.44"></polygon> <polygon class="cls-5" points="72.98 5.79 74.06 0.68 79.2 1.76 78.09 6.89 72.98 5.79"></polygon> <rect class="cls-6" x="30.41" y="97.85" width="5.25" height="5.25" transform="translate(-67.74 68.37) rotate(-54.13)"></rect> <polygon class="cls-7" points="50.46 111.64 51.58 106.52 56.67 107.6 55.61 112.73 50.46 111.64"></polygon> <polygon class="cls-8" points="83.38 8.6 85.51 3.8 90.29 5.94 88.17 10.73 83.38 8.6"></polygon> <rect class="cls-9" x="94.02" y="10.31" width="5.24" height="5.24" transform="translate(29.43 83.58) rotate(-54.05)"></rect> </g> </g> </svg> 