<?xml version="1.0" encoding="UTF-8"?> <svg xmlns="http://www.w3.org/2000/svg" xmlns:xlink="http://www.w3.org/1999/xlink" viewBox="0 0 100.52 122.54"> <defs> <style>.cls-1{fill:url(#Безымянный_градиент_32);}.cls-2{fill:url(#Безымянный_градиент_32-2);}.cls-3{fill:url(#Безымянный_градиент_32-3);}.cls-4{fill:url(#Безымянный_градиент_32-4);}.cls-5{fill:url(#Безымянный_градиент_32-5);}</style> <linearGradient id="Безымянный_градиент_32" x1="47.87" y1="11.97" x2="52.65" y2="11.97" gradientUnits="userSpaceOnUse"> <stop offset="0" stop-color="#b3852d"></stop> <stop offset="0.51" stop-color="#ebc780"></stop> <stop offset="0.6" stop-color="#e7c27a"></stop> <stop offset="0.72" stop-color="#dcb66a"></stop> <stop offset="0.86" stop-color="#caa050"></stop> <stop offset="1" stop-color="#b3852d"></stop> </linearGradient> <linearGradient id="Безымянный_градиент_32-2" x1="0" y1="61.27" x2="100.52" y2="61.27" xlink:href="#Безымянный_градиент_32"></linearGradient> <linearGradient id="Безымянный_градиент_32-3" x1="9.57" y1="61.02" x2="90.95" y2="61.02" xlink:href="#Безымянный_градиент_32"></linearGradient> <linearGradient id="Безымянный_градиент_32-4" x1="28.72" y1="56.48" x2="71.8" y2="56.48" xlink:href="#Безымянный_градиент_32"></linearGradient> <linearGradient id="Безымянный_градиент_32-5" x1="40.69" y1="57.68" x2="62.23" y2="57.68" xlink:href="#Безымянный_градиент_32"></linearGradient> </defs> <title>4-4</title> <g id="Слой_2" data-name="Слой 2"> <g id="Слой_1-2" data-name="Слой 1"> <path class="cls-1" d="M50.26,9.58A2.39,2.39,0,1,0,52.65,12,2.39,2.39,0,0,0,50.26,9.58Z"></path> <path class="cls-2" d="M98.13,14.36a12,12,0,0,1-12-12A2.39,2.39,0,0,0,83.77,0h-67a2.39,2.39,0,0,0-2.39,2.39,12,12,0,0,1-12,12A2.39,2.39,0,0,0,0,16.75V55.81a69.52,69.52,0,0,0,49.57,66.63,2.39,2.39,0,0,0,1.37,0,69.53,69.53,0,0,0,49.57-66.63V16.75A2.39,2.39,0,0,0,98.13,14.36ZM95.73,55.81a64.36,64.36,0,0,1-45.47,61.83A64.71,64.71,0,0,1,4.79,55.81V19A16.79,16.79,0,0,0,19,4.79H81.54A16.79,16.79,0,0,0,95.73,19Z"></path> <path class="cls-3" d="M89.51,22.14A21.56,21.56,0,0,1,78.38,11a2.39,2.39,0,0,0-2.19-1.43H59.83a2.39,2.39,0,1,0,0,4.79H74.68A26.31,26.31,0,0,0,86.16,25.84v30a54.52,54.52,0,0,1-35.9,51.72,54.52,54.52,0,0,1-35.9-51.72v-30A26.31,26.31,0,0,0,25.84,14.36H40.69a2.39,2.39,0,1,0,0-4.79H24.33A2.39,2.39,0,0,0,22.14,11,21.56,21.56,0,0,1,11,22.14a2.39,2.39,0,0,0-1.43,2.19V55.81a59.58,59.58,0,0,0,39.89,56.52,2.39,2.39,0,0,0,1.6,0A59.58,59.58,0,0,0,90.95,55.81V24.33A2.39,2.39,0,0,0,89.51,22.14Z"></path> <path class="cls-4" d="M50.26,34.94A21.54,21.54,0,1,0,71.8,56.48,21.56,21.56,0,0,0,50.26,34.94Zm0,38.29A16.75,16.75,0,1,1,67,56.48,16.77,16.77,0,0,1,50.26,73.24Z"></path> <path class="cls-5" d="M61.53,50a2.39,2.39,0,0,0-3.38,0L47.87,60.28l-3.09-3.09a2.39,2.39,0,0,0-3.38,3.38l4.79,4.79a2.39,2.39,0,0,0,3.38,0l12-12A2.39,2.39,0,0,0,61.53,50Z"></path> </g> </g> </svg> 