<?xml version="1.0" encoding="UTF-8"?> <svg xmlns="http://www.w3.org/2000/svg" xmlns:xlink="http://www.w3.org/1999/xlink" viewBox="0 0 111.21 107.76"> <defs> <style>.cls-1{fill:url(#Безымянный_градиент_32);}.cls-2{fill:url(#Безымянный_градиент_32-2);}.cls-3{fill:url(#Безымянный_градиент_32-3);}.cls-4{fill:url(#Безымянный_градиент_32-4);}.cls-5{fill:url(#Безымянный_градиент_32-5);}.cls-6{fill:url(#Безымянный_градиент_32-6);}.cls-7{fill:url(#Безымянный_градиент_32-7);}.cls-8{fill:url(#Безымянный_градиент_32-8);}.cls-9{fill:url(#Безымянный_градиент_32-9);}.cls-10{fill:url(#Безымянный_градиент_32-10);}.cls-11{fill:url(#Безымянный_градиент_32-11);}.cls-12{fill:url(#Безымянный_градиент_32-12);}.cls-13{fill:url(#Безымянный_градиент_32-13);}.cls-14{fill:url(#Безымянный_градиент_32-14);}.cls-15{fill:url(#Безымянный_градиент_32-15);}</style> <linearGradient id="Безымянный_градиент_32" y1="41.01" x2="56.43" y2="41.01" gradientUnits="userSpaceOnUse"> <stop offset="0" stop-color="#b3852d"></stop> <stop offset="0.51" stop-color="#ebc780"></stop> <stop offset="0.6" stop-color="#e7c27a"></stop> <stop offset="0.72" stop-color="#dcb66a"></stop> <stop offset="0.86" stop-color="#caa050"></stop> <stop offset="1" stop-color="#b3852d"></stop> </linearGradient> <linearGradient id="Безымянный_градиент_32-2" x1="40.51" y1="62.52" x2="111.21" y2="62.52" xlink:href="#Безымянный_градиент_32"></linearGradient> <linearGradient id="Безымянный_градиент_32-3" x1="7.04" y1="88.26" x2="34.94" y2="88.26" xlink:href="#Безымянный_градиент_32"></linearGradient> <linearGradient id="Безымянный_градиент_32-4" x1="49.77" y1="10.22" x2="70.28" y2="10.22" xlink:href="#Безымянный_градиент_32"></linearGradient> <linearGradient id="Безымянный_градиент_32-5" x1="94.41" y1="100.33" x2="109.29" y2="100.33" xlink:href="#Безымянный_градиент_32"></linearGradient> <linearGradient id="Безымянный_градиент_32-6" x1="16.21" y1="41.04" x2="44.26" y2="41.04" xlink:href="#Безымянный_градиент_32"></linearGradient> <linearGradient id="Безымянный_градиент_32-7" x1="10.02" y1="34.94" x2="13.98" y2="34.94" xlink:href="#Безымянный_градиент_32"></linearGradient> <linearGradient id="Безымянный_градиент_32-8" x1="10.05" y1="47.12" x2="14" y2="47.12" xlink:href="#Безымянный_градиент_32"></linearGradient> <linearGradient id="Безымянный_градиент_32-9" x1="7.89" y1="41.07" x2="11.93" y2="41.07" xlink:href="#Безымянный_градиент_32"></linearGradient> <linearGradient id="Безымянный_градиент_32-10" x1="55.86" y1="83.53" x2="80.75" y2="83.53" xlink:href="#Безымянный_градиент_32"></linearGradient> <linearGradient id="Безымянный_градиент_32-11" x1="48.23" y1="74.9" x2="51.96" y2="74.9" xlink:href="#Безымянный_градиент_32"></linearGradient> <linearGradient id="Безымянный_градиент_32-12" x1="84.73" y1="82.59" x2="88.48" y2="82.59" xlink:href="#Безымянный_градиент_32"></linearGradient> <linearGradient id="Безымянный_градиент_32-13" x1="72.96" y1="40.51" x2="99.72" y2="40.51" xlink:href="#Безымянный_градиент_32"></linearGradient> <linearGradient id="Безымянный_градиент_32-14" x1="97.13" y1="51.15" x2="101.1" y2="51.15" xlink:href="#Безымянный_градиент_32"></linearGradient> <linearGradient id="Безымянный_градиент_32-15" x1="93.1" y1="57.25" x2="97.09" y2="57.25" xlink:href="#Безымянный_градиент_32"></linearGradient> </defs> <title>4-6</title> <g id="Слой_2" data-name="Слой 2"> <g id="Слой_1-2" data-name="Слой 1"> <path class="cls-1" d="M0,38.47a47,47,0,0,1,1.43-5.63c3.75-9.71,11-15.26,21-17.44,11.47-2.49,24,2.74,30.14,12.52,7,11.15,4.18,25.22-6.6,33.41A29.62,29.62,0,0,1,5.91,57,24.22,24.22,0,0,1,.21,44.27,2.93,2.93,0,0,0,0,43.68Q0,41.07,0,38.47ZM29.11,18.61a26.7,26.7,0,0,0-15.28,4.28C2,30.68.31,46.39,10.2,56.2a26,26,0,0,0,35.07.9C54,49.25,55.2,36.73,47.83,27.69A24.19,24.19,0,0,0,29.11,18.61Z"></path> <path class="cls-2" d="M91.14,68.79c.67,1.6,1.42,3.08,1.92,4.65,3.51,10.94-1.16,22.39-11.56,28.42-12.35,7.17-28.72,3.75-36.68-7.65s-4.65-26.42,7.28-34A27.27,27.27,0,0,1,63.38,56a4.77,4.77,0,0,0,.61-.16c-8.08-16.23,2.71-31.55,14.36-35.24a25,25,0,0,1,31.17,14.88A24,24,0,0,1,108,56.42C104.28,63.07,98.53,67.08,91.14,68.79ZM67,101.88c6.53-.13,12-2,16.63-6.17a19.8,19.8,0,0,0,3.69-25.66,1.83,1.83,0,0,0-1.24-.76,25.16,25.16,0,0,1-19.14-9.14,1.86,1.86,0,0,0-1.34-.59A24.19,24.19,0,0,0,54,63.42c-10.43,6.8-12.91,20-5.44,29.52C53.32,99,59.79,101.64,67,101.88ZM86.12,65.48A21.16,21.16,0,1,0,65.06,44.24,21.21,21.21,0,0,0,86.12,65.48Z"></path> <path class="cls-3" d="M34.94,88.28a13.95,13.95,0,1,1-13.88-14A14,14,0,0,1,34.94,88.28Zm-14,10.14A10.18,10.18,0,1,0,10.83,88.13,10.2,10.2,0,0,0,20.91,98.42Z"></path> <path class="cls-4" d="M60,0A10.26,10.26,0,0,1,70.28,10.27a10.26,10.26,0,0,1-20.51,0A10.26,10.26,0,0,1,60,0Zm6.45,10.27A6.45,6.45,0,1,0,60,16.71,6.45,6.45,0,0,0,66.48,10.27Z"></path> <path class="cls-5" d="M101.86,107.76a7.42,7.42,0,1,1,7.43-7.45A7.45,7.45,0,0,1,101.86,107.76Zm3.65-7.41a3.67,3.67,0,0,0-3.68-3.72,3.7,3.7,0,0,0,0,7.39A3.67,3.67,0,0,0,105.51,100.35Z"></path> <path class="cls-6" d="M16.21,40.91A14,14,0,1,1,30.16,55.08,14,14,0,0,1,16.21,40.91ZM30.27,30.78A10.26,10.26,0,1,0,40.51,41.08,10.26,10.26,0,0,0,30.27,30.78Z"></path> <path class="cls-7" d="M10,36.75V33.13h4v3.62Z"></path> <path class="cls-8" d="M14,45.31v3.62H10V45.31Z"></path> <path class="cls-9" d="M11.93,39.22v3.7c-1.21,0-2.35,0-3.49,0a.73.73,0,0,1-.51-.5c0-1,0-2.07,0-3.18Z"></path> <path class="cls-10" d="M80.75,83.58a12.44,12.44,0,0,1-24.89-.06,12.44,12.44,0,1,1,24.89.06Zm-21.09-.1a8.7,8.7,0,0,0,8.6,8.78A8.8,8.8,0,0,0,77,83.62a8.7,8.7,0,0,0-8.64-8.73A8.61,8.61,0,0,0,59.66,83.48Z"></path> <path class="cls-11" d="M52,76.74H48.23V73.06H52Z"></path> <path class="cls-12" d="M88.48,80.8v3.57H84.73V80.8Z"></path> <path class="cls-13" d="M86.08,28A13.58,13.58,0,0,1,97.32,33.6a11.85,11.85,0,0,1-2.5,16.74,14.13,14.13,0,0,1-18.39-1.58,12.07,12.07,0,0,1,5.24-20.06,17.44,17.44,0,0,1,2.41-.59A18.44,18.44,0,0,1,86.08,28ZM86,31.69c-.57.07-1.29.13-2,.26-6.21,1.14-9.22,7.86-5.83,13A10.3,10.3,0,0,0,92.7,47.24a8.08,8.08,0,0,0,2.1-10.67C92.85,33.31,89.81,31.91,86,31.69Z"></path> <path class="cls-14" d="M97.13,49.37h4v3.56h-4Z"></path> <path class="cls-15" d="M97.09,55.47V59h-4V55.47Z"></path> </g> </g> </svg> 