<?xml version="1.0" encoding="UTF-8"?> <svg xmlns="http://www.w3.org/2000/svg" xmlns:xlink="http://www.w3.org/1999/xlink" viewBox="0 0 110.67 115.49"> <defs> <style>.cls-1{fill:url(#Безымянный_градиент_32);}.cls-2{fill:url(#Безымянный_градиент_32-2);}.cls-3{fill:url(#Безымянный_градиент_32-3);}.cls-4{fill:url(#Безымянный_градиент_32-4);}.cls-5{fill:url(#Безымянный_градиент_32-5);}.cls-6{fill:url(#Безымянный_градиент_32-6);}.cls-7{fill:url(#Безымянный_градиент_32-7);}.cls-8{fill:url(#Безымянный_градиент_32-8);}.cls-9{fill:url(#Безымянный_градиент_32-9);}</style> <linearGradient id="Безымянный_градиент_32" y1="57.74" x2="110.67" y2="57.74" gradientUnits="userSpaceOnUse"> <stop offset="0" stop-color="#b3852d"></stop> <stop offset="0.51" stop-color="#ebc780"></stop> <stop offset="0.6" stop-color="#e7c27a"></stop> <stop offset="0.72" stop-color="#dcb66a"></stop> <stop offset="0.86" stop-color="#caa050"></stop> <stop offset="1" stop-color="#b3852d"></stop> </linearGradient> <linearGradient id="Безымянный_градиент_32-2" x1="30.19" y1="40.58" x2="49.78" y2="40.58" xlink:href="#Безымянный_градиент_32"></linearGradient> <linearGradient id="Безымянный_градиент_32-3" x1="60.89" y1="40.58" x2="80.49" y2="40.58" xlink:href="#Безымянный_градиент_32"></linearGradient> <linearGradient id="Безымянный_градиент_32-4" x1="26.36" y1="52.95" x2="47.86" y2="52.95" xlink:href="#Безымянный_градиент_32"></linearGradient> <linearGradient id="Безымянный_градиент_32-5" x1="62.8" y1="52.95" x2="84.3" y2="52.95" xlink:href="#Безымянный_градиент_32"></linearGradient> <linearGradient id="Безымянный_градиент_32-6" x1="47.46" y1="66.29" x2="63.21" y2="66.29" xlink:href="#Безымянный_градиент_32"></linearGradient> <linearGradient id="Безымянный_градиент_32-7" x1="43.62" y1="78.84" x2="67.04" y2="78.84" xlink:href="#Безымянный_градиент_32"></linearGradient> <linearGradient id="Безымянный_градиент_32-8" x1="51.3" y1="90.35" x2="59.37" y2="90.35" xlink:href="#Безымянный_градиент_32"></linearGradient> <linearGradient id="Безымянный_градиент_32-9" x1="20.61" y1="21.3" x2="24.84" y2="21.3" xlink:href="#Безымянный_градиент_32"></linearGradient> </defs> <title>4_1</title> <g id="Слой_2" data-name="Слой 2"> <g id="Слой_1-2" data-name="Слой 1"> <path class="cls-1" d="M30.7,115.49a2.14,2.14,0,0,1-1.5-.62L13.67,99.33c-3.16-3.16-4-5.11-8.89-15.94-1.15-2.56-2.52-5.62-4.2-9.31a6.82,6.82,0,1,1,12.47-5.51l4.65,10.85A9.91,9.91,0,0,1,25,78a58.55,58.55,0,0,1-2.1-6.25c-4-.84-13.08-4.35-13.08-18.78,0-7.07,1.87-11,5.54-11.77A52.24,52.24,0,0,1,7.73,5.32l.81-3.66A2.11,2.11,0,0,1,10.61,0h89.46a2.11,2.11,0,0,1,2.08,1.66l.77,3.5a52.31,52.31,0,0,1-7.62,36c3.72.7,5.61,4.66,5.61,11.78,0,14.42-9,17.93-13.07,18.78A58.1,58.1,0,0,1,85.73,78,9.94,9.94,0,0,1,93,79.43l4.66-10.85a6.82,6.82,0,1,1,12.48,5.51c-1.71,3.77-3.11,6.87-4.27,9.46C101,94.25,100.15,96.18,97,99.33L81.47,114.86a2.11,2.11,0,0,1-1.5.62H59.17a2.12,2.12,0,0,1-2.12-2.12c0-1,0-2,0-2.79a34.41,34.41,0,0,1,.59-8.62c-.76.06-1.53.1-2.3.1s-1.54,0-2.31-.1a48.65,48.65,0,0,1,.59,11.42,2.12,2.12,0,0,1-2.12,2.1Zm48.39-4.24L94,96.33c2.56-2.56,3.07-3.7,7.94-14.53,1.15-2.57,2.55-5.67,4.28-9.47a2.58,2.58,0,0,0-2.37-3.62l-.28,0a2.59,2.59,0,0,0-2.09,1.53c-.85,2-1.58,3.71-2.21,5.21-4.46,10.6-4.46,10.6-13.09,19.11-1.35,1.33-2.91,2.87-4.73,4.69a2.12,2.12,0,0,1-3-3l5-5C89,85.75,89.74,85,91,83.2a5.61,5.61,0,0,0-7,.11c-7.14,6-10.76,7.5-13.4,8.58a11.1,11.1,0,0,0-5.48,3.93,18.32,18.32,0,0,0-3.77,11.4v4Zm-29.71,0v-4c0-8.06-4.5-13.77-9-15.25a45.72,45.72,0,0,1-13.7-8.67,5.62,5.62,0,0,0-7-.09c1.22,1.85,1.93,2.56,7.48,8.08l5,5a2.12,2.12,0,1,1-3,3c-1.83-1.84-3.41-3.39-4.76-4.73C15.82,86,15.82,86,11.49,75.73c-.66-1.57-1.42-3.37-2.32-5.49a2.59,2.59,0,0,0-2.08-1.52l-.28,0a2.58,2.58,0,0,0-2.36,3.63c1.64,3.61,3,6.59,4.11,9.08,5.15,11.44,5.58,12.38,8.12,14.92l14.9,14.91ZM51.56,97.5a25.57,25.57,0,0,0,7.55,0A17.43,17.43,0,0,1,68.89,88a37.85,37.85,0,0,0,10.47-6.38C86,69.41,86.61,55.22,86.64,42.87c-3.85-6.78-14.56-23.5-31.31-33.7C38.63,19.29,27.94,36,24.1,42.75c0,13.46.92,27.5,7.42,39A37.63,37.63,0,0,0,41.78,88,17.41,17.41,0,0,1,51.56,97.5Zm-35-52.23a1.37,1.37,0,0,0-.59.12c-.32.15-1.9,1.22-1.9,7.55,0,9.08,4.11,12.66,7.71,14a110.77,110.77,0,0,1-1.87-20.31A6.68,6.68,0,0,0,16.58,45.27Zm74.25,1.41A110.83,110.83,0,0,1,89,67c3.59-1.4,7.7-5,7.7-14,0-6.31-1.58-7.39-1.9-7.55a1.42,1.42,0,0,0-.62-.12A6.55,6.55,0,0,0,90.83,46.69ZM12.31,4.24a47.4,47.4,0,0,0,8,36.64C25,32.45,35.23,17.14,51.12,6.81c-1.73-.88-3.51-1.69-5.31-2.4A46.48,46.48,0,0,0,30.14,16.87a2.12,2.12,0,0,1-3.31-2.65,50,50,0,0,1,10.82-10Zm65.62,6a2.1,2.1,0,0,1,1.28.44c7.55,5.77,11.36,15.43,11.64,29.5a47.59,47.59,0,0,0,7.51-36H55.28c11,6.17,22.44,17.25,30.9,29.88-1.08-9.4-4.21-16-9.55-20.05a2.12,2.12,0,0,1,1.29-3.8Z"></path> <path class="cls-2" d="M47.66,44.21A2.11,2.11,0,0,1,47,44.1l-7.44-2.48a8.19,8.19,0,0,0-6.29.45,2.11,2.11,0,0,1-1,.23h0a2.12,2.12,0,0,1-.93-4,12.41,12.41,0,0,1,9.52-.67l7.44,2.47a2.12,2.12,0,0,1-.67,4.13Z"></path> <path class="cls-3" d="M63.05,44.21a2.12,2.12,0,0,1-.71-4.13l7.44-2.48a12.41,12.41,0,0,1,9.52.68,2.12,2.12,0,1,1-1.9,3.79,8.17,8.17,0,0,0-6.29-.44l-4.3,1.44c-3.38,1.13-3.44,1.15-3.73,1.15Z"></path> <path class="cls-4" d="M32.38,57.94a2.06,2.06,0,0,1-2.18-2.12,2.12,2.12,0,0,1,2.06-2.12A3.17,3.17,0,0,0,33,53l-.56-.31a7.32,7.32,0,0,1-4,1.41h0a2.12,2.12,0,1,1,0-4.24,4.55,4.55,0,0,0,2.35-1.3,2.12,2.12,0,0,1,2.76-.19,11.64,11.64,0,0,0,7.16,2.21A15.23,15.23,0,0,0,45.06,50a2.09,2.09,0,0,1,.67-.11A2.12,2.12,0,0,1,46.43,54a19,19,0,0,1-9.28.48C35.7,56.68,34,57.94,32.38,57.94Z"></path> <path class="cls-5" d="M78.35,57.94c-2.1,0-3.78-1.86-4.84-3.47A19,19,0,0,1,64.24,54a2.12,2.12,0,1,1,1.36-4,15.09,15.09,0,0,0,4.32.61,11.64,11.64,0,0,0,7.16-2.21,2.12,2.12,0,0,1,2.77.2,4.54,4.54,0,0,0,2.38,1.3h0a2.12,2.12,0,0,1,0,4.23,7.33,7.33,0,0,1-4-1.42l-.55.3a3,3,0,0,0,.82.72,2.08,2.08,0,0,1,2,2.12,2.16,2.16,0,0,1-2.15,2.12Z"></path> <path class="cls-6" d="M55.33,69.28a12.42,12.42,0,0,1-6.93-2.1,2.12,2.12,0,0,1,2.35-3.52,8.24,8.24,0,0,0,9.16,0,2.11,2.11,0,0,1,1.18-.36,2.12,2.12,0,0,1,1.18,3.88A12.42,12.42,0,0,1,55.33,69.28Z"></path> <path class="cls-7" d="M55.33,84.79c-6.2,0-11.71-3.54-11.71-6.34a2.53,2.53,0,0,1,2.53-2.51h.19a12,12,0,0,0,3.3-1.21c1.91-.87,4.08-1.86,5.69-1.86s3.76,1,5.69,1.86A12.09,12.09,0,0,0,64.35,76h.17A2.53,2.53,0,0,1,67,78.46C67,81.25,61.53,84.79,55.33,84.79Zm-5.55-5.52a12.67,12.67,0,0,0,11.09,0,36,36,0,0,0-5.55-2.15A35.66,35.66,0,0,0,49.79,79.28Z"></path> <path class="cls-8" d="M53.42,92.47a2.12,2.12,0,0,1,0-4.24h3.84a2.12,2.12,0,0,1,0,4.24Z"></path> <circle class="cls-9" cx="22.73" cy="21.3" r="2.12"></circle> </g> </g> </svg> 