<?xml version="1.0" encoding="UTF-8"?> <svg xmlns="http://www.w3.org/2000/svg" xmlns:xlink="http://www.w3.org/1999/xlink" viewBox="0 0 110.36 104.86"> <defs> <style>.cls-1{fill:url(#Безымянный_градиент_32);}.cls-2{fill:url(#Безымянный_градиент_32-2);}.cls-3{fill:url(#Безымянный_градиент_32-3);}.cls-4{fill:url(#Безымянный_градиент_32-4);}.cls-5{fill:url(#Безымянный_градиент_32-5);}.cls-6{fill:url(#Безымянный_градиент_32-6);}.cls-7{fill:url(#Безымянный_градиент_32-7);}</style> <linearGradient id="Безымянный_градиент_32" x1="69.46" y1="77.11" x2="72.89" y2="77.11" gradientUnits="userSpaceOnUse"> <stop offset="0" stop-color="#b3852d"></stop> <stop offset="0.51" stop-color="#ebc780"></stop> <stop offset="0.6" stop-color="#e7c27a"></stop> <stop offset="0.72" stop-color="#dcb66a"></stop> <stop offset="0.86" stop-color="#caa050"></stop> <stop offset="1" stop-color="#b3852d"></stop> </linearGradient> <linearGradient id="Безымянный_градиент_32-2" x1="70.93" y1="70.42" x2="80.48" y2="70.42" xlink:href="#Безымянный_градиент_32"></linearGradient> <linearGradient id="Безымянный_градиент_32-3" x1="70.27" y1="31.42" x2="73.62" y2="31.42" xlink:href="#Безымянный_градиент_32"></linearGradient> <linearGradient id="Безымянный_градиент_32-4" x1="71.41" y1="24.42" x2="80.55" y2="24.42" xlink:href="#Безымянный_градиент_32"></linearGradient> <linearGradient id="Безымянный_градиент_32-5" x1="21.05" y1="31.37" x2="24.41" y2="31.37" xlink:href="#Безымянный_градиент_32"></linearGradient> <linearGradient id="Безымянный_градиент_32-6" x1="22.26" y1="24.43" x2="31.49" y2="24.43" xlink:href="#Безымянный_градиент_32"></linearGradient> <linearGradient id="Безымянный_градиент_32-7" x1="0" y1="52.43" x2="110.36" y2="52.43" xlink:href="#Безымянный_градиент_32"></linearGradient> </defs> <title>4_5</title> <g id="Слой_2" data-name="Слой 2"> <g id="Слой_1-2" data-name="Слой 1"> <path class="cls-1" d="M72.73,77.8c0-.31.07-.61.13-.92A1.64,1.64,0,0,0,71.55,75a1.6,1.6,0,0,0-.3,0,1.64,1.64,0,0,0-1.61,1.34c-.07.4-.13.81-.17,1.21a1.64,1.64,0,0,0,1.47,1.79h.16A1.63,1.63,0,0,0,72.73,77.8Z"></path> <path class="cls-2" d="M71.79,74.64A1.64,1.64,0,0,0,74,74a10.5,10.5,0,0,1,5.43-4.8,1.64,1.64,0,0,0-.6-3.16,1.61,1.61,0,0,0-.6.11,13.78,13.78,0,0,0-7.12,6.31,1.64,1.64,0,0,0,.67,2.22Z"></path> <path class="cls-3" d="M70.72,33.09a1.63,1.63,0,0,0,1.15.51h0A1.65,1.65,0,0,0,73.54,32c0-.31,0-.62.06-.92a1.64,1.64,0,0,0-1.44-1.81H72a1.63,1.63,0,0,0-1.62,1.45c0,.4-.07.81-.08,1.22A1.63,1.63,0,0,0,70.72,33.09Z"></path> <path class="cls-4" d="M72.38,28.92a1.64,1.64,0,0,0,2.16-.83,10.5,10.5,0,0,1,5.07-5.18,1.64,1.64,0,0,0-.71-3.12,1.6,1.6,0,0,0-.7.16,13.78,13.78,0,0,0-6.65,6.8,1.64,1.64,0,0,0,.83,2.17Z"></path> <path class="cls-5" d="M23,29.21h-.21a1.64,1.64,0,0,0-1.62,1.43c-.05.4-.08.81-.1,1.22a1.65,1.65,0,0,0,1.59,1.7h.05A1.63,1.63,0,0,0,24.33,32c0-.31,0-.62.08-.92A1.64,1.64,0,0,0,23,29.21Z"></path> <path class="cls-6" d="M29.17,20a13.78,13.78,0,0,0-6.76,6.7,1.64,1.64,0,0,0,3,1.38A10.5,10.5,0,0,1,30.53,23a1.64,1.64,0,0,0,.81-2.17A1.64,1.64,0,0,0,29.17,20Z"></path> <path class="cls-7" d="M107.68,93.78a6.34,6.34,0,0,0-6.43-1.2L91.11,82.49a13.66,13.66,0,0,0,0-14.09l10.15-10.11a6.32,6.32,0,1,0,.33-11.95L91.67,36.6a13.67,13.67,0,0,0,0-14.08L101.8,12.41a6.34,6.34,0,1,0-2.7-1.94l-9.47,9.44a13.85,13.85,0,0,0-19.36-.37l-.34.33-9.86-10a6.24,6.24,0,0,0,1.07-3.51,6.34,6.34,0,1,0-11.26,4l-9.47,9.44a13.85,13.85,0,0,0-19.36-.37l-.35.34-9.45-9.41a6.38,6.38,0,0,0-.71-8.73,6.34,6.34,0,1,0-2,10.67L18.68,22.35a13.85,13.85,0,0,0,0,14.17L8.57,46.57a6.34,6.34,0,1,0,3.64,8.35,6.41,6.41,0,0,0-.94-6.41l9.43-9.39a13.84,13.84,0,0,0,19.36.34l.38-.37,9.52,9.48a6.33,6.33,0,0,0,7.29,9.72L67.34,68.36a13.85,13.85,0,0,0,0,14.16L57.23,92.58a6.34,6.34,0,1,0,3.63,8.35,6.41,6.41,0,0,0-.94-6.41l9.43-9.39a13.84,13.84,0,0,0,19.36.34l.38-.37,9.46,9.42a6.34,6.34,0,0,0,9.66,8.2,6.34,6.34,0,0,0-.53-8.95ZM55,101.54a3,3,0,0,1,0-6.09h0a3,3,0,0,1,0,6.09Zm-48.66-46a3,3,0,0,1,0-6.09h0a3,3,0,1,1,0,6.09Zm-3-49.19a3.05,3.05,0,0,1,3-3h0a3,3,0,1,1-3.06,3ZM30.64,18.92A10.52,10.52,0,1,1,20.07,29.39,10.54,10.54,0,0,1,30.64,18.92ZM104,3.41h0A3.06,3.06,0,1,1,101,6.49,3.07,3.07,0,0,1,104,3.41ZM52,52.35a3.05,3.05,0,0,1,3-3h0a3,3,0,1,1-3.06,3Zm-9.54-30L52.58,12.28a6.35,6.35,0,0,0,5-.25L67.9,22.47a13.84,13.84,0,0,0,0,14.17L57.79,46.7A6.37,6.37,0,0,0,55,46a6.27,6.27,0,0,0-2.45.49L42.45,36.47A13.66,13.66,0,0,0,42.44,22.38ZM54.8,3.31h0a3,3,0,1,1-3.06,3A3,3,0,0,1,54.81,3.31ZM79.75,19.05h0A10.52,10.52,0,0,1,90.23,29.62,10.52,10.52,0,1,1,79.75,19.05Zm-10,46.37-.35.34-9.45-9.41a6.31,6.31,0,0,0,.34-7.49l9.64-9.6a13.85,13.85,0,0,0,19.36.34l.38-.38,9.1,8.94a6.3,6.3,0,0,0-.2,8.19l-9.48,9.44a13.85,13.85,0,0,0-19.36-.37Zm9.54-.49h0A10.51,10.51,0,1,1,68.74,75.4,10.54,10.54,0,0,1,79.3,64.93Zm24.22-15.6a3,3,0,0,1,3,3.06,3,3,0,1,1-3-3.06ZM100.41,98.5a3.06,3.06,0,0,1,3.05-3h0a3,3,0,0,1,3,3.06,3,3,0,0,1-6.09,0Z"></path> </g> </g> </svg> 